REM COMMENT "Generated by IcecastMetadataRecorder https://github.com/eshaz/icecast-metadata-js"
REM BR "16"
REM METAINT "64"
REM DATE "2020-07-29T21:16:11.222Z"
TITLE "isics-all"
FILE "isics-all.mp3" WAVE
  TRACK 1 AUDIO
    TITLE "2020-07-29T21:36:43.070Z TO:1101 Polk County - Westcom Law Enforcement 1 FROM:1362"
    INDEX 01 20:31:64
  TRACK 2 AUDIO
    TITLE "2020-07-29T21:36:45.878Z TO:1101 Polk County - Westcom Law Enforcement 1 FROM:1004"
    INDEX 01 20:34:49
  TRACK 3 AUDIO
    TITLE "2020-07-29T21:36:47.246Z TO:52200 Mercy ONE Iowa Ground Dispatch FROM:10779515"
    INDEX 01 20:36:02
  TRACK 4 AUDIO
    TITLE "2020-07-29T21:36:50.774Z TO:52200 Mercy ONE Iowa Ground Dispatch FROM:10779527"
    INDEX 01 20:39:41
  TRACK 5 AUDIO
    TITLE "2020-07-29T21:36:52.862Z TO:18501 Boone County Law 1 FROM:800408"
    INDEX 01 20:41:48
  TRACK 6 AUDIO
    TITLE "2020-07-29T21:37:07.550Z TO:52200 Mercy ONE Iowa Ground Dispatch FROM:10779515"
    INDEX 01 20:56:25